# 3ds Max Wavefront OBJ Exporter v0.97b - (c)2007 guruware
# File Created: 20.05.2017 01:21:46

mtllib Shield.mtl

#
# object default
#

v  -0.1321 0.3778 -0.1102
v  -0.1785 1.9456 -0.1385
v  0.0749 2.0132 -0.0370
v  0.0749 0.1269 -0.0074
v  -0.1321 0.3778 -0.0464
v  0.0749 0.1269 0.0565
v  0.0749 2.0247 0.0268
v  -0.1785 1.9572 -0.0747
v  -0.1785 0.3285 -0.0338
v  -0.1737 0.3452 -0.1296
v  0.0749 0.0611 -0.0300
v  0.0749 0.0391 0.0677
v  0.5815 0.7370 -0.2412
v  0.5721 0.7461 -0.3331
v  0.5721 1.9368 -0.3331
v  0.5815 1.9503 -0.2412
v  0.3282 2.0296 -0.0338
v  0.3235 2.0146 -0.1296
v  0.0749 2.0809 -0.0300
v  0.0749 2.0971 0.0677
v  -0.4318 1.9503 -0.2412
v  -0.4224 1.9368 -0.3331
v  -0.4224 0.7461 -0.3331
v  -0.4318 0.7370 -0.2412
v  0.3282 1.9456 -0.1385
v  0.5255 1.8664 -0.3001
v  0.5255 0.7606 -0.3001
v  0.2819 0.3778 -0.1102
v  -0.3757 0.7606 -0.3001
v  -0.3757 1.8664 -0.3001
v  0.3282 1.9572 -0.0747
v  0.2819 0.3778 -0.0464
v  0.5255 0.7606 -0.2362
v  0.5255 1.8779 -0.2363
v  -0.3757 1.8779 -0.2363
v  -0.3757 0.7606 -0.2362
v  0.3235 0.3452 -0.1296
v  0.3282 0.3285 -0.0338
v  -0.1737 2.0146 -0.1296
v  -0.1785 2.0296 -0.0338
v  -0.3773 0.7599 -0.1966
v  -0.1334 0.3764 -0.0063
v  0.0749 0.1245 0.0965
v  0.2831 0.3764 -0.0063
v  0.5270 0.7599 -0.1966
v  0.5270 1.8798 -0.1966
v  0.3282 1.9591 -0.0338
v  0.0749 2.0267 0.0677
v  -0.1785 1.9591 -0.0338
v  -0.3773 1.8798 -0.1966
v  -0.3773 1.8683 -0.3635
v  -0.3773 0.7599 -0.3635
v  -0.1785 1.9476 -0.2007
v  0.0749 2.0151 -0.0992
v  0.3282 1.9476 -0.2007
v  0.5270 1.8683 -0.3635
v  0.5270 0.7599 -0.3635
v  0.2831 0.3764 -0.1732
v  0.0749 0.1245 -0.0704
v  -0.1334 0.3764 -0.1732
# 60 vertices

vn 0.4693 -0.0099 -0.8830
vn 0.4875 -0.0030 -0.8731
vn 0.0022 -0.0114 -0.9999
vn 0.0014 -0.0108 -0.9999
vn -0.4809 0.0022 0.8768
vn 0.0013 0.0108 0.9999
vn 0.0022 0.0113 0.9999
vn -0.4919 0.0060 0.8706
vn -0.7929 -0.6094 -0.0000
vn -0.8136 -0.5814 -0.0000
vn 0.0000 -1.0000 -0.0000
vn 0.9523 -0.3053 -0.0000
vn 0.9725 -0.2330 -0.0000
vn 0.9050 0.4255 -0.0000
vn 0.7240 0.6898 -0.0000
vn 0.2707 0.9627 -0.0000
vn 0.2844 0.9587 -0.0000
vn 0.0000 1.0000 -0.0000
vn -0.7240 0.6898 -0.0000
vn -0.9050 0.4255 -0.0000
vn -0.9725 -0.2330 -0.0000
vn -0.9523 -0.3053 -0.0000
vn -0.4919 -0.0060 -0.8706
vn -0.6306 0.0042 -0.7761
vn -0.6147 0.0000 -0.7888
vn -0.4809 -0.0022 -0.8768
vn 0.6200 0.0038 -0.7846
vn 0.6336 0.0000 -0.7736
vn 0.4875 0.0030 0.8731
vn 0.4694 0.0099 0.8829
vn 0.6200 -0.0037 0.7846
vn 0.6336 0.0000 0.7736
vn -0.6306 -0.0042 0.7761
vn -0.6147 0.0000 0.7888
vn 0.8136 -0.5814 -0.0000
vn 0.7929 -0.6094 -0.0000
vn -0.2844 0.9587 -0.0000
vn -0.2707 0.9627 -0.0000
vn -0.6316 -0.0076 0.7753
vn -0.6285 -0.0030 0.7778
vn -0.5363 -0.0057 0.8440
vn -0.5317 0.0073 0.8469
vn 0.0385 -0.3060 0.9512
vn 0.0119 -0.2959 0.9552
vn 0.5112 -0.0192 0.8593
vn 0.5217 -0.0235 0.8528
vn 0.6310 0.0020 0.7758
vn 0.6335 0.0000 0.7737
vn 0.4883 0.0000 0.8727
vn 0.5309 0.0000 0.8474
vn 0.0000 0.0000 1.0000
vn -0.4883 0.0000 0.8727
vn -0.5309 0.0000 0.8474
vn -0.6335 0.0000 0.7737
vn 0.6335 0.0000 -0.7737
vn 0.6310 -0.0020 -0.7758
vn 0.4883 0.0000 -0.8727
vn 0.5309 0.0000 -0.8474
vn 0.0000 0.0000 -1.0000
vn -0.4883 0.0000 -0.8727
vn -0.5309 0.0000 -0.8474
vn -0.6335 0.0000 -0.7737
vn -0.6285 0.0030 -0.7778
vn -0.6316 0.0076 -0.7753
vn -0.5363 0.0057 -0.8440
vn -0.5317 -0.0073 -0.8469
vn 0.0385 0.3060 -0.9512
vn 0.0119 0.2959 -0.9552
vn 0.5112 0.0192 -0.8593
vn 0.5217 0.0235 -0.8528
vn 0.8065 0.5895 0.0444
vn 0.9686 0.2453 0.0411
vn 0.9463 0.3205 0.0415
vn 0.7901 0.6113 0.0444
vn -0.0005 0.9983 0.0587
vn -0.0003 0.9983 0.0588
vn -0.7897 0.6118 0.0446
vn -0.8063 0.5899 0.0443
vn -0.9464 0.3203 0.0415
vn -0.9686 0.2452 0.0412
vn -0.7337 -0.6768 0.0609
vn -0.9075 -0.4164 0.0554
vn -0.3041 -0.9515 0.0460
vn -0.2713 -0.9614 0.0459
vn 0.0000 -0.9989 0.0477
vn 0.2717 -0.9613 0.0464
vn 0.3061 -0.9509 0.0454
vn 0.7323 -0.6782 0.0616
vn 0.9074 -0.4168 0.0547
vn 0.9523 0.3042 -0.0260
vn 0.9717 0.2347 -0.0257
vn 0.9152 -0.4016 -0.0337
vn 0.7726 -0.6337 -0.0381
vn 0.3482 -0.9370 -0.0294
vn 0.3095 -0.9504 -0.0304
vn 0.0000 -0.9995 -0.0314
vn -0.3098 -0.9503 -0.0298
vn -0.3500 -0.9363 -0.0300
vn -0.7714 -0.6352 -0.0376
vn -0.9150 -0.4019 -0.0344
vn -0.9717 0.2348 -0.0258
vn -0.9522 0.3043 -0.0259
vn -0.8225 0.5681 -0.0280
vn -0.8065 0.5906 -0.0283
vn 0.0005 0.9993 -0.0375
vn 0.0003 0.9993 -0.0377
vn 0.8060 0.5912 -0.0281
vn 0.8222 0.5684 -0.0281
# 108 vertex normals

vt 0.5532 0.0854 0.0000
vt 0.5648 0.4976 0.0000
vt 0.4930 0.5149 0.0000
vt 0.4929 0.0191 0.0000
vt 0.7663 0.0868 0.0000
vt 0.8262 0.0209 0.0000
vt 0.8262 0.5167 0.0000
vt 0.7548 0.4995 0.0000
vt 0.1846 0.0866 0.0000
vt 0.1534 0.0866 0.0000
vt 0.1723 0.0147 0.0000
vt 0.2035 0.0147 0.0000
vt 0.1457 0.8277 0.0000
vt 0.1145 0.8277 0.0000
vt 0.1146 0.6007 0.0000
vt 0.1458 0.6007 0.0000
vt 0.1846 0.5511 0.0000
vt 0.1534 0.5511 0.0000
vt 0.1724 0.5020 0.0000
vt 0.2036 0.5020 0.0000
vt 0.1458 0.4034 0.0000
vt 0.1146 0.4034 0.0000
vt 0.1146 0.1765 0.0000
vt 0.1458 0.1765 0.0000
vt 0.4211 0.4976 0.0000
vt 0.3540 0.4772 0.0000
vt 0.3521 0.1866 0.0000
vt 0.4326 0.0854 0.0000
vt 0.6338 0.1865 0.0000
vt 0.6319 0.4772 0.0000
vt 0.8976 0.4995 0.0000
vt 0.8861 0.0868 0.0000
vt 0.9662 0.1873 0.0000
vt 0.9644 0.4792 0.0000
vt 0.6881 0.4792 0.0000
vt 0.6862 0.1874 0.0000
vt 0.1533 0.9176 0.0000
vt 0.1845 0.9176 0.0000
vt 0.1723 0.9895 0.0000
vt 0.2035 0.9895 0.0000
vt 0.1534 0.4530 0.0000
vt 0.1846 0.4530 0.0000
vt 0.6466 0.6928 0.0000
vt 0.6319 0.6877 0.0000
vt 0.7033 0.6067 0.0000
vt 0.7131 0.6173 0.0000
vt 0.7655 0.5737 0.0000
vt 0.7655 0.5556 0.0000
vt 0.8277 0.6067 0.0000
vt 0.8179 0.6174 0.0000
vt 0.8845 0.6928 0.0000
vt 0.8991 0.6877 0.0000
vt 0.8817 0.9313 0.0000
vt 0.8967 0.9466 0.0000
vt 0.8256 0.9633 0.0000
vt 0.8257 0.9479 0.0000
vt 0.7655 0.9625 0.0000
vt 0.7655 0.9780 0.0000
vt 0.7054 0.9633 0.0000
vt 0.7053 0.9479 0.0000
vt 0.6494 0.9313 0.0000
vt 0.6344 0.9466 0.0000
vt 0.5826 0.9292 0.0000
vt 0.5855 0.6930 0.0000
vt 0.6002 0.6879 0.0000
vt 0.5975 0.9469 0.0000
vt 0.5266 0.9636 0.0000
vt 0.5267 0.9457 0.0000
vt 0.4668 0.9603 0.0000
vt 0.4668 0.9783 0.0000
vt 0.4070 0.9636 0.0000
vt 0.4069 0.9457 0.0000
vt 0.3510 0.9292 0.0000
vt 0.3360 0.9469 0.0000
vt 0.3334 0.6879 0.0000
vt 0.3480 0.6930 0.0000
vt 0.4047 0.6069 0.0000
vt 0.4145 0.6175 0.0000
vt 0.4668 0.5739 0.0000
vt 0.4668 0.5558 0.0000
vt 0.5289 0.6069 0.0000
vt 0.5191 0.6175 0.0000
vt 0.0917 0.9184 0.0000
vt 0.0615 0.8238 0.0000
vt 0.0695 0.8244 0.0000
vt 0.0997 0.9192 0.0000
vt 0.1062 0.9857 0.0000
vt 0.1143 0.9868 0.0000
vt 0.0885 0.0249 0.0000
vt 0.0964 0.0235 0.0000
vt 0.0845 0.0911 0.0000
vt 0.0765 0.0922 0.0000
vt 0.0580 0.1862 0.0000
vt 0.0501 0.1872 0.0000
vt 0.0808 0.4094 0.0000
vt 0.0729 0.4099 0.0000
vt 0.1067 0.4513 0.0000
vt 0.1149 0.4512 0.0000
vt 0.1285 0.5033 0.0000
vt 0.1367 0.5032 0.0000
vt 0.1166 0.5559 0.0000
vt 0.1084 0.5561 0.0000
vt 0.0840 0.5991 0.0000
vt 0.0760 0.5989 0.0000
vt 0.2024 0.8205 0.0000
vt 0.1894 0.8212 0.0000
vt 0.1802 0.5940 0.0000
vt 0.1932 0.5939 0.0000
vt 0.2136 0.5501 0.0000
vt 0.2264 0.5503 0.0000
vt 0.2347 0.4964 0.0000
vt 0.2475 0.4966 0.0000
vt 0.2278 0.4423 0.0000
vt 0.2150 0.4422 0.0000
vt 0.1958 0.3979 0.0000
vt 0.1827 0.3974 0.0000
vt 0.1978 0.1704 0.0000
vt 0.2108 0.1714 0.0000
vt 0.2444 0.0806 0.0000
vt 0.2572 0.0817 0.0000
vt 0.2711 0.0155 0.0000
vt 0.2839 0.0170 0.0000
vt 0.2465 0.9112 0.0000
vt 0.2715 0.9766 0.0000
vt 0.2586 0.9777 0.0000
vt 0.2336 0.9121 0.0000
# 126 texture coords

g default
usemtl _ShieldShield__Shieldlambert2SG
f 1/1/1 2/2/2 3/3/3 
f 3/3/3 4/4/4 1/1/1 
f 5/5/5 6/6/6 7/7/7 
f 7/7/7 8/8/8 5/5/5 
f 9/9/9 10/10/10 11/11/11 
f 11/11/11 12/12/11 9/9/9 
f 13/13/12 14/14/13 15/15/14 
f 15/15/14 16/16/15 13/13/12 
f 17/17/16 18/18/17 19/19/18 
f 19/19/18 20/20/18 17/17/16 
f 21/21/19 22/22/20 23/23/21 
f 23/23/21 24/24/22 21/21/19 
f 25/25/23 26/26/24 27/27/25 
f 27/27/25 28/28/26 25/25/23 
f 3/3/3 25/25/23 28/28/26 
f 28/28/26 4/4/4 3/3/3 
f 2/2/2 1/1/1 29/29/27 
f 29/29/27 30/30/28 2/2/2 
f 31/31/29 32/32/30 33/33/31 
f 33/33/31 34/34/32 31/31/29 
f 7/7/7 6/6/6 32/32/30 
f 32/32/30 31/31/29 7/7/7 
f 8/8/8 35/35/33 36/36/34 
f 36/36/34 5/5/5 8/8/8 
f 37/37/35 14/14/13 13/13/12 
f 13/13/12 38/38/36 37/37/35 
f 11/39/11 37/37/35 38/38/36 
f 38/38/36 12/40/11 11/39/11 
f 10/10/10 9/9/9 24/24/22 
f 24/24/22 23/23/21 10/10/10 
f 39/41/37 22/22/20 21/21/19 
f 21/21/19 40/42/38 39/41/37 
f 19/19/18 39/41/37 40/42/38 
f 40/42/38 20/20/18 19/19/18 
f 18/18/17 17/17/16 16/16/15 
f 16/16/15 15/15/14 18/18/17 
f 41/43/39 24/44/40 9/45/41 
f 9/45/41 42/46/42 41/43/39 
f 43/47/43 42/46/42 9/45/41 
f 9/45/41 12/48/44 43/47/43 
f 43/47/43 12/48/44 38/49/45 
f 38/49/45 44/50/46 43/47/43 
f 45/51/47 44/50/46 38/49/45 
f 38/49/45 13/52/48 45/51/47 
f 46/53/48 45/51/47 13/52/48 
f 13/52/48 16/54/48 46/53/48 
f 46/53/48 16/54/48 17/55/49 
f 17/55/49 47/56/50 46/53/48 
f 48/57/51 47/56/50 17/55/49 
f 17/55/49 20/58/51 48/57/51 
f 48/57/51 20/58/51 40/59/52 
f 40/59/52 49/60/53 48/57/51 
f 50/61/54 49/60/53 40/59/52 
f 40/59/52 21/62/54 50/61/54 
f 50/61/54 21/62/54 24/44/40 
f 24/44/40 41/43/39 50/61/54 
f 51/63/55 52/64/56 23/65/55 
f 23/65/55 22/66/55 51/63/55 
f 51/63/55 22/66/55 39/67/57 
f 39/67/57 53/68/58 51/63/55 
f 54/69/59 53/68/58 39/67/57 
f 39/67/57 19/70/59 54/69/59 
f 54/69/59 19/70/59 18/71/60 
f 18/71/60 55/72/61 54/69/59 
f 56/73/62 55/72/61 18/71/60 
f 18/71/60 15/74/62 56/73/62 
f 56/73/62 15/74/62 14/75/63 
f 14/75/63 57/76/64 56/73/62 
f 57/76/64 14/75/63 37/77/65 
f 37/77/65 58/78/66 57/76/64 
f 59/79/67 58/78/66 37/77/65 
f 37/77/65 11/80/68 59/79/67 
f 59/79/67 11/80/68 10/81/69 
f 10/81/69 60/82/70 59/79/67 
f 52/64/56 60/82/70 10/81/69 
f 10/81/69 23/65/55 52/64/56 
f 5/83/71 36/84/72 41/85/73 
f 41/85/73 42/86/74 5/83/71 
f 6/87/75 5/83/71 42/86/74 
f 42/86/74 43/88/76 6/87/75 
f 6/89/75 43/90/76 44/91/77 
f 44/91/77 32/92/78 6/89/75 
f 32/92/78 44/91/77 45/93/79 
f 45/93/79 33/94/80 32/92/78 
f 33/94/80 45/93/79 46/95/81 
f 46/95/81 34/96/82 33/94/80 
f 31/97/83 34/96/82 46/95/81 
f 46/95/81 47/98/84 31/97/83 
f 7/99/85 31/97/83 47/98/84 
f 47/98/84 48/100/85 7/99/85 
f 7/99/85 48/100/85 49/101/86 
f 49/101/86 8/102/87 7/99/85 
f 8/102/87 49/101/86 50/103/88 
f 50/103/88 35/104/89 8/102/87 
f 35/104/89 50/103/88 41/85/73 
f 41/85/73 36/84/72 35/104/89 
f 29/105/90 52/106/91 51/107/92 
f 51/107/92 30/108/93 29/105/90 
f 30/108/93 51/107/92 53/109/94 
f 53/109/94 2/110/95 30/108/93 
f 2/110/95 53/109/94 54/111/96 
f 54/111/96 3/112/96 2/110/95 
f 25/113/97 3/112/96 54/111/96 
f 54/111/96 55/114/98 25/113/97 
f 26/115/99 25/113/97 55/114/98 
f 55/114/98 56/116/100 26/115/99 
f 26/115/99 56/116/100 57/117/101 
f 57/117/101 27/118/102 26/115/99 
f 27/118/102 57/117/101 58/119/103 
f 58/119/103 28/120/104 27/118/102 
f 28/120/104 58/119/103 59/121/105 
f 59/121/105 4/122/106 28/120/104 
f 1/123/107 4/124/106 59/125/105 
f 59/125/105 60/126/108 1/123/107 
f 29/105/90 1/123/107 60/126/108 
f 60/126/108 52/106/91 29/105/90 
# 116 faces

